<svg xmlns="http://www.w3.org/2000/svg" width="24" height="24" viewBox="0 0 24 24" fill="none" stroke="currentColor" stroke-width="1.5" stroke-linecap="round" stroke-linejoin="round">
  <path d="M12 2.5c3.2 0 5.7 2.2 6.35 5.15q1.95-.75 2.55.7c.5 1.2-.7 1.9-1.95 1.65.25 1.45-.15 3-1.3 4.1-1 1-2.45 1.5-3.8 1.6.3 2 .75 4 1.2 5.8H8.95c.45-1.8.9-3.8 1.2-5.8-1.35-.1-2.8-.6-3.8-1.6-1.15-1.1-1.55-2.65-1.3-4.1-1.25.25-2.45-.45-1.95-1.65.5-1.2 1.85-1.2 2.55-.7C6.3 4.7 8.8 2.5 12 2.5z"/>
  <path d="M12 8.15c.95 0 1.6 1.05 1.05 2.3L12 13.1l-1.05-2.65C10.4 9.2 11.05 8.15 12 8.15z"/>
  <circle cx="8.85" cy="8.35" r="1.55"/>
  <circle cx="15.15" cy="8.35" r="1.55"/>
</svg>
